<svg xmlns="http://www.w3.org/2000/svg" viewBox="0 0 200 200" role="img" aria-hidden="true">
  <circle cx="100" cy="100" r="100" fill="#faf8f6"/>
  <g fill="#ec3a8b">
    <ellipse cx="100" cy="48" rx="11" ry="12"/>
    <path d="M91 62c-2 6-5 12-6 19-1 4 0 8 2 11 2 3 5 5 9 5h8c4 0 7-2 9-5 2-3 3-7 2-11-1-7-4-13-6-19-3-2-7-2-10 0z"/>
    <path d="M78 72c-6 3-10 9-11 16-1 5 0 10 3 14 2 3 5 4 8 2 3-2 4-5 4-8l1-14c0-3-2-6-4-8-1-2-1-4 0-4z"/>
    <path d="M122 72c6 3 10 9 11 16 1 5 0 10-3 14-2 3-5 4-8 2-3-2-4-5-4-8l-1-14c0-3 2-6 4-8 1-2 1-4 0-4z"/>
    <path d="M94 96c-1 8-2 16-3 24-1 3 1 6 4 6h10c3 0 5-3 4-6-1-8-2-16-3-24-1-1-4-1-6 0z"/>
    <path d="M88 126c-2 5-4 10-5 15-1 2 1 5 4 5 3 0 5-2 6-4 1-4 2-8 3-12 1-2 0-3-2-3h-6z"/>
    <path d="M112 126c2 5 4 10 5 15 1 2-1 5-4 5-3 0-5-2-6-4-1-4-2-8-3-12-1-2 0-3 2-3h6z"/>
  </g>
</svg>
