<svg xmlns="http://www.w3.org/2000/svg" viewBox="0 0 200 200" role="img" aria-hidden="true">
  <circle cx="100" cy="100" r="100" fill="#faf8f6"/>
  <g fill="#ec3a8b">
    <ellipse cx="101" cy="44" rx="12" ry="13"/>
    <path d="M90 60c-2 8-6 15-7 24-1 4 0 8 2 12 2 4 6 6 10 6h12c4 0 8-2 10-6 2-4 3-8 2-12-1-9-5-16-7-24-4-2-9-2-13 0z"/>
    <path d="M72 68c-8 5-13 13-14 22-1 6 0 12 4 17 2 3 6 4 9 2 3-2 4-6 3-9l-3-20c-1-4-3-8-6-10-1-2-1-3 0-3z"/>
    <path d="M130 68c8 5 13 13 14 22 1 6 0 12-4 17-2 3-6 4-9 2-3-2-4-6-3-9l3-20c1-4 3-8 6-10 1-2 1-3 0-3z"/>
    <path d="M95 94c-1 10-2 20-3 30-1 3 1 6 4 6h10c3 0 5-3 4-6-1-10-2-20-3-30-1-2-4-2-7 0z"/>
    <path d="M84 130c-3 6-6 13-7 20-1 3 1 6 4 6 3 0 6-2 7-5 1-5 2-10 3-15 1-2 0-4-2-4h-5z"/>
    <path d="M116 130c3 6 6 13 7 20 1 3-1 6-4 6-3 0-6-2-7-5-1-5-2-10-3-15-1-2 0-4 2-4h5z"/>
    <path d="M118 64c10-6 20-8 30-4 3 2 2 6-2 6-8 0-16 2-22 6-3 2-4 1-3-4z"/>
  </g>
</svg>
