<svg xmlns="http://www.w3.org/2000/svg" viewBox="0 0 200 200" role="img" aria-hidden="true">
  <circle cx="100" cy="100" r="100" fill="#faf8f6"/>
  <g fill="#ec3a8b">
    <ellipse cx="92" cy="40" rx="12" ry="13"/>
    <path d="M80 56c-2 10-5 19-7 29-1 4 1 8 5 8h8c4 0 6-4 5-8-2-10-5-19-7-29-3-2-6-2-9 0z"/>
    <path d="M64 64c-7 7-11 16-11 26 0 7 2 14 5 19 2 3 6 3 9 0 3-3 3-8 2-12l-5-24c-1-3-3-6-5-7-1-1-1-2 0-2z"/>
    <path d="M108 56c2 6 5 12 9 18 4 6 8 11 14 14 3 2 7 1 9-2 2-3 1-7-2-10-5-4-9-9-12-14-3-5-6-10-9-14-1-2-3-1-4 0z"/>
    <path d="M120 72c12-4 24-2 34 6 3 2 1 7-3 6-8-2-16-4-24-8-3-1-5 0-4-4z"/>
    <path d="M90 92c-2 12-3 24-5 36-1 3 1 6 4 6h6c3 0 5-3 4-6-2-12-3-24-5-36-1-2-3-2-6 0z"/>
    <path d="M84 132c-3 8-6 17-7 25-1 3 1 6 4 6 3 0 6-2 7-5 1-6 2-12 3-18 1-2 0-4-2-4h-5z"/>
    <path d="M102 132c1 8 2 16 3 24 1 3-1 6-4 6-3 0-6-2-7-5-1-6-2-12-3-18-1-2 0-4 2-4h6z"/>
    <path d="M128 108c14-4 26-2 36 8 2 2 0 7-4 6-10-2-18-6-26-12-2-1-4-3-6-2z"/>
  </g>
</svg>
